{
	"patcher" : 	{
		"fileversion" : 1,
		"appversion" : 		{
			"major" : 8,
			"minor" : 5,
			"revision" : 4,
			"architecture" : "x64",
			"modernui" : 1
		}
,
		"classnamespace" : "box",
		"openrect" : [ 54.0, 116.0, 243.0, 173.20755010843277 ],
		"bglocked" : 0,
		"openinpresentation" : 1,
		"default_fontsize" : 12.0,
		"default_fontface" : 0,
		"default_fontname" : "Arial",
		"gridonopen" : 1,
		"gridsize" : [ 15.0, 15.0 ],
		"gridsnaponopen" : 1,
		"objectsnaponopen" : 1,
		"statusbarvisible" : 2,
		"toolbarvisible" : 1,
		"lefttoolbarpinned" : 0,
		"toptoolbarpinned" : 0,
		"righttoolbarpinned" : 0,
		"bottomtoolbarpinned" : 0,
		"toolbars_unpinned_last_save" : 0,
		"tallnewobj" : 0,
		"boxanimatetime" : 200,
		"enablehscroll" : 1,
		"enablevscroll" : 1,
		"devicewidth" : 243.0,
		"description" : "",
		"digest" : "",
		"tags" : "",
		"style" : "",
		"subpatcher_template" : "",
		"assistshowspatchername" : 0,
		"boxes" : [ 			{
				"box" : 				{
					"id" : "obj-104",
					"maxclass" : "newobj",
					"numinlets" : 2,
					"numoutlets" : 2,
					"outlettype" : [ "", "" ],
					"patching_rect" : [ 859.5, 224.509205043315887, 46.0, 22.0 ],
					"text" : "route 1"
				}

			}
, 			{
				"box" : 				{
					"id" : "obj-100",
					"maxclass" : "gswitch",
					"numinlets" : 3,
					"numoutlets" : 1,
					"outlettype" : [ "" ],
					"parameter_enable" : 0,
					"patching_rect" : [ 806.399999999999977, 477.46001261472702, 41.0, 32.0 ]
				}

			}
, 			{
				"box" : 				{
					"id" : "obj-99",
					"maxclass" : "gswitch",
					"numinlets" : 3,
					"numoutlets" : 1,
					"outlettype" : [ "" ],
					"parameter_enable" : 0,
					"patching_rect" : [ 763.399999999999977, 477.46001261472702, 41.0, 32.0 ]
				}

			}
, 			{
				"box" : 				{
					"id" : "obj-98",
					"maxclass" : "gswitch",
					"numinlets" : 3,
					"numoutlets" : 1,
					"outlettype" : [ "" ],
					"parameter_enable" : 0,
					"patching_rect" : [ 720.399999999999977, 477.46001261472702, 41.0, 32.0 ]
				}

			}
, 			{
				"box" : 				{
					"id" : "obj-80",
					"maxclass" : "gswitch2",
					"numinlets" : 2,
					"numoutlets" : 2,
					"outlettype" : [ "", "" ],
					"parameter_enable" : 0,
					"patching_rect" : [ 493.599998784065292, 148.033014714717865, 39.0, 32.0 ]
				}

			}
, 			{
				"box" : 				{
					"id" : "obj-60",
					"maxclass" : "comment",
					"numinlets" : 1,
					"numoutlets" : 0,
					"patching_rect" : [ 77.0, 48.0, 150.0, 20.0 ],
					"text" : "Choose device"
				}

			}
, 			{
				"box" : 				{
					"id" : "obj-56",
					"maxclass" : "comment",
					"numinlets" : 1,
					"numoutlets" : 0,
					"patching_rect" : [ 713.003175759315582, 548.871116399765015, 80.0, 20.0 ],
					"text" : "Rate limiting"
				}

			}
, 			{
				"box" : 				{
					"id" : "obj-54",
					"maxclass" : "comment",
					"numinlets" : 1,
					"numoutlets" : 0,
					"patching_rect" : [ 687.5, 171.609204471111298, 164.0, 20.0 ],
					"text" : "Vibration amount encoders"
				}

			}
, 			{
				"box" : 				{
					"id" : "obj-51",
					"maxclass" : "comment",
					"numinlets" : 1,
					"numoutlets" : 0,
					"patching_rect" : [ 694.283329916000412, 19.0, 150.0, 20.0 ],
					"text" : "Entrypoint toggle"
				}

			}
, 			{
				"box" : 				{
					"id" : "obj-44",
					"maxclass" : "button",
					"numinlets" : 1,
					"numoutlets" : 1,
					"outlettype" : [ "bang" ],
					"parameter_enable" : 0,
					"patching_rect" : [ 694.399999999999977, 486.0, 24.0, 24.0 ]
				}

			}
, 			{
				"box" : 				{
					"id" : "obj-12",
					"maxclass" : "newobj",
					"numinlets" : 2,
					"numoutlets" : 1,
					"outlettype" : [ "" ],
					"patching_rect" : [ 769.003175759315468, 579.195212364196777, 57.0, 22.0 ],
					"text" : "speedlim"
				}

			}
, 			{
				"box" : 				{
					"id" : "obj-58",
					"maxclass" : "newobj",
					"numinlets" : 1,
					"numoutlets" : 3,
					"outlettype" : [ "bang", "int", "int" ],
					"patching_rect" : [ 6.5, 4.718678324222566, 83.0, 22.0 ],
					"text" : "live.thisdevice"
				}

			}
, 			{
				"box" : 				{
					"id" : "obj-50",
					"maxclass" : "live.comment",
					"numinlets" : 1,
					"numoutlets" : 0,
					"patching_rect" : [ 675.103175759315491, 579.195212364196777, 74.528298377990723, 18.0 ],
					"presentation" : 1,
					"presentation_rect" : [ 190.501888811588287, 70.113207459449768, 48.906165719032288, 18.0 ],
					"text" : "Rate limit",
					"textjustification" : 0
				}

			}
, 			{
				"box" : 				{
					"id" : "obj-47",
					"maxclass" : "live.numbox",
					"numinlets" : 1,
					"numoutlets" : 2,
					"outlettype" : [ "", "float" ],
					"parameter_enable" : 1,
					"patching_rect" : [ 675.103175759315491, 595.238157629966736, 44.0, 15.0 ],
					"presentation" : 1,
					"presentation_rect" : [ 190.501888811588287, 86.415099054574966, 44.0, 15.0 ],
					"saved_attribute_attributes" : 					{
						"valueof" : 						{
							"parameter_initial" : [ 10 ],
							"parameter_initial_enable" : 1,
							"parameter_longname" : "live.numbox",
							"parameter_mmax" : 250.0,
							"parameter_mmin" : 1.0,
							"parameter_shortname" : "live.numbox",
							"parameter_type" : 1,
							"parameter_unitstyle" : 2
						}

					}
,
					"varname" : "live.numbox"
				}

			}
, 			{
				"box" : 				{
					"fontname" : "Comic Sans MS",
					"id" : "obj-43",
					"linecount" : 2,
					"maxclass" : "live.comment",
					"numinlets" : 1,
					"numoutlets" : 0,
					"patching_rect" : [ 1009.0, 814.223588883876801, 182.0, 33.0 ],
					"presentation" : 1,
					"presentation_linecount" : 2,
					"presentation_rect" : [ 6.556603729724884, 123.415099054574966, 163.0, 33.0 ],
					"text" : "Intiface Central needs to be running for this plugin to function",
					"textjustification" : 0
				}

			}
, 			{
				"box" : 				{
					"fontname" : "Comic Sans MS Bold",
					"id" : "obj-37",
					"maxclass" : "live.comment",
					"numinlets" : 1,
					"numoutlets" : 0,
					"patching_rect" : [ 1009.0, 789.150980085134506, 151.0, 20.0 ],
					"presentation" : 1,
					"presentation_rect" : [ 6.556603729724884, 101.415099054574966, 150.0, 20.0 ],
					"text" : "Buttplug for Live",
					"textjustification" : 0
				}

			}
, 			{
				"box" : 				{
					"id" : "obj-36",
					"maxclass" : "newobj",
					"numinlets" : 2,
					"numoutlets" : 2,
					"outlettype" : [ "", "" ],
					"patching_rect" : [ 234.0, 482.46001261472702, 65.0, 22.0 ],
					"text" : "route error"
				}

			}
, 			{
				"box" : 				{
					"id" : "obj-35",
					"maxclass" : "newobj",
					"numinlets" : 1,
					"numoutlets" : 1,
					"outlettype" : [ "" ],
					"patching_rect" : [ 234.0, 509.60001261472695, 34.0, 22.0 ],
					"text" : "error"
				}

			}
, 			{
				"box" : 				{
					"id" : "obj-17",
					"maxclass" : "message",
					"numinlets" : 2,
					"numoutlets" : 1,
					"outlettype" : [ "" ],
					"patching_rect" : [ 330.333370923995972, 302.368729341030132, 50.0, 22.0 ],
					"text" : "active 0"
				}

			}
, 			{
				"box" : 				{
					"id" : "obj-14",
					"maxclass" : "message",
					"numinlets" : 2,
					"numoutlets" : 1,
					"outlettype" : [ "" ],
					"patching_rect" : [ 278.333370923995972, 302.368729341030132, 50.0, 22.0 ],
					"text" : "active 1"
				}

			}
, 			{
				"box" : 				{
					"id" : "obj-123",
					"maxclass" : "comment",
					"numinlets" : 1,
					"numoutlets" : 0,
					"patching_rect" : [ 117.5, 564.81898021697998, 150.0, 20.0 ],
					"text" : "bang for when start fails"
				}

			}
, 			{
				"box" : 				{
					"id" : "obj-121",
					"maxclass" : "button",
					"numinlets" : 1,
					"numoutlets" : 1,
					"outlettype" : [ "bang" ],
					"parameter_enable" : 0,
					"patching_rect" : [ 117.5, 599.10921311378479, 24.0, 24.0 ]
				}

			}
, 			{
				"box" : 				{
					"id" : "obj-113",
					"maxclass" : "newobj",
					"numinlets" : 3,
					"numoutlets" : 3,
					"outlettype" : [ "", "", "" ],
					"patching_rect" : [ 344.329999999999984, 779.60920504331591, 111.0, 22.0 ],
					"text" : "route success error"
				}

			}
, 			{
				"box" : 				{
					"id" : "obj-111",
					"maxclass" : "newobj",
					"numinlets" : 2,
					"numoutlets" : 1,
					"outlettype" : [ "bang" ],
					"patching_rect" : [ 193.25, 186.979205043315886, 35.0, 22.0 ],
					"text" : "del 1"
				}

			}
, 			{
				"box" : 				{
					"id" : "obj-110",
					"maxclass" : "message",
					"numinlets" : 2,
					"numoutlets" : 1,
					"outlettype" : [ "" ],
					"patching_rect" : [ 127.813804986476896, 205.026436448097229, 35.0, 22.0 ],
					"text" : "bang"
				}

			}
, 			{
				"box" : 				{
					"id" : "obj-103",
					"maxclass" : "newobj",
					"numinlets" : 2,
					"numoutlets" : 1,
					"outlettype" : [ "int" ],
					"patching_rect" : [ 70.099994003772736, 220.605359226465225, 29.5, 22.0 ],
					"text" : "*"
				}

			}
, 			{
				"box" : 				{
					"id" : "obj-77",
					"maxclass" : "message",
					"numinlets" : 2,
					"numoutlets" : 1,
					"outlettype" : [ "" ],
					"patching_rect" : [ 403.000043570995331, 825.223588883876801, 35.0, 22.0 ],
					"text" : "set 0"
				}

			}
, 			{
				"box" : 				{
					"id" : "obj-75",
					"maxclass" : "message",
					"numinlets" : 2,
					"numoutlets" : 1,
					"outlettype" : [ "" ],
					"patching_rect" : [ 340.000043570995331, 825.223588883876801, 61.0, 22.0 ],
					"text" : "rawfloat 0"
				}

			}
, 			{
				"box" : 				{
					"id" : "obj-48",
					"maxclass" : "message",
					"numinlets" : 2,
					"numoutlets" : 1,
					"outlettype" : [ "" ],
					"patching_rect" : [ 293.333370923995972, 89.033018350601196, 35.0, 22.0 ],
					"text" : "0"
				}

			}
, 			{
				"box" : 				{
					"id" : "obj-46",
					"maxclass" : "gswitch",
					"numinlets" : 3,
					"numoutlets" : 1,
					"outlettype" : [ "" ],
					"parameter_enable" : 0,
					"patching_rect" : [ 447.620000000000005, 320.459205043315876, 41.0, 32.0 ]
				}

			}
, 			{
				"box" : 				{
					"id" : "obj-34",
					"maxclass" : "message",
					"numinlets" : 2,
					"numoutlets" : 1,
					"outlettype" : [ "" ],
					"patching_rect" : [ 193.97773897886276, 636.547450721263885, 35.0, 22.0 ],
					"text" : "set 0"
				}

			}
, 			{
				"box" : 				{
					"id" : "obj-32",
					"maxclass" : "newobj",
					"numinlets" : 3,
					"numoutlets" : 3,
					"outlettype" : [ "", "", "" ],
					"patching_rect" : [ 205.955884935855863, 767.935436069965363, 111.0, 22.0 ],
					"text" : "route error success"
				}

			}
, 			{
				"box" : 				{
					"id" : "obj-30",
					"maxclass" : "message",
					"numinlets" : 2,
					"numoutlets" : 1,
					"outlettype" : [ "" ],
					"patching_rect" : [ 13.25, 215.632062356472034, 29.5, 22.0 ],
					"text" : "set"
				}

			}
, 			{
				"box" : 				{
					"id" : "obj-28",
					"maxclass" : "message",
					"numinlets" : 2,
					"numoutlets" : 1,
					"outlettype" : [ "" ],
					"patching_rect" : [ 117.97773897886276, 636.547450721263885, 71.0, 22.0 ],
					"text" : "set ERROR"
				}

			}
, 			{
				"box" : 				{
					"id" : "obj-26",
					"maxclass" : "live.comment",
					"numinlets" : 1,
					"numoutlets" : 0,
					"patching_rect" : [ 7.5, 163.109204471111298, 150.0, 18.0 ],
					"presentation" : 1,
					"presentation_rect" : [ 190.501888811588287, 132.358494162559509, 44.0, 18.0 ],
					"textjustification" : 0
				}

			}
, 			{
				"box" : 				{
					"id" : "obj-20",
					"maxclass" : "newobj",
					"numinlets" : 3,
					"numoutlets" : 3,
					"outlettype" : [ "", "", "" ],
					"patching_rect" : [ 237.0, 709.509205043315887, 123.0, 22.0 ],
					"text" : "route terminated start"
				}

			}
, 			{
				"box" : 				{
					"id" : "obj-15",
					"maxclass" : "message",
					"numinlets" : 2,
					"numoutlets" : 1,
					"outlettype" : [ "" ],
					"patching_rect" : [ 311.399998962879181, 210.509205043315887, 63.0, 22.0 ],
					"text" : "script stop"
				}

			}
, 			{
				"box" : 				{
					"id" : "obj-13",
					"maxclass" : "newobj",
					"numinlets" : 3,
					"numoutlets" : 3,
					"outlettype" : [ "", "", "" ],
					"patching_rect" : [ 217.499995648860931, 210.509205043315887, 81.0, 22.0 ],
					"text" : "routepass 0 1"
				}

			}
, 			{
				"box" : 				{
					"id" : "obj-9",
					"maxclass" : "newobj",
					"numinlets" : 2,
					"numoutlets" : 1,
					"outlettype" : [ "bang" ],
					"patching_rect" : [ 311.399998962879181, 180.509205043315887, 61.0, 22.0 ],
					"text" : "delay 100"
				}

			}
, 			{
				"box" : 				{
					"id" : "obj-207",
					"maxclass" : "newobj",
					"numinlets" : 2,
					"numoutlets" : 2,
					"outlettype" : [ "", "" ],
					"patching_rect" : [ 30.5, 482.46001261472702, 147.0, 22.0 ],
					"text" : "substitute devices append"
				}

			}
, 			{
				"box" : 				{
					"id" : "obj-196",
					"maxclass" : "message",
					"numinlets" : 2,
					"numoutlets" : 1,
					"outlettype" : [ "" ],
					"patching_rect" : [ 183.606552124023438, 482.46001261472702, 35.0, 22.0 ],
					"text" : "clear"
				}

			}
, 			{
				"box" : 				{
					"id" : "obj-147",
					"maxclass" : "newobj",
					"numinlets" : 4,
					"numoutlets" : 1,
					"outlettype" : [ "" ],
					"patching_rect" : [ 694.399999999999977, 518.709205043315933, 111.0, 22.0 ],
					"text" : "sprintf %f %f %f %f"
				}

			}
, 			{
				"box" : 				{
					"id" : "obj-94",
					"maxclass" : "message",
					"numinlets" : 2,
					"numoutlets" : 1,
					"outlettype" : [ "" ],
					"patching_rect" : [ 493.599998784065292, 195.373967096805586, 67.0, 22.0 ],
					"text" : "rawfloat $1"
				}

			}
, 			{
				"box" : 				{
					"id" : "obj-88",
					"maxclass" : "newobj",
					"numinlets" : 1,
					"numoutlets" : 1,
					"outlettype" : [ "" ],
					"patching_rect" : [ 395.199999999999989, 386.709209394454945, 196.0, 22.0 ],
					"text" : "if $i1==0 then active 1 else active 0"
				}

			}
, 			{
				"box" : 				{
					"id" : "obj-81",
					"maxclass" : "message",
					"numinlets" : 2,
					"numoutlets" : 1,
					"outlettype" : [ "" ],
					"patching_rect" : [ 224.000003337860107, 275.509205043315887, 31.0, 22.0 ],
					"text" : "stop"
				}

			}
, 			{
				"box" : 				{
					"id" : "obj-79",
					"maxclass" : "live.text",
					"numinlets" : 1,
					"numoutlets" : 2,
					"outlettype" : [ "", "" ],
					"parameter_enable" : 1,
					"patching_rect" : [ 694.283329916000412, 42.509205043315887, 44.0, 15.0 ],
					"presentation" : 1,
					"presentation_rect" : [ 190.501888811588287, 152.358494162559509, 44.0, 15.0 ],
					"saved_attribute_attributes" : 					{
						"valueof" : 						{
							"parameter_enum" : [ "val1", "val2" ],
							"parameter_initial" : [ 0.0 ],
							"parameter_initial_enable" : 1,
							"parameter_longname" : "live.text[2]",
							"parameter_mmax" : 1,
							"parameter_shortname" : "live.text[2]",
							"parameter_type" : 2
						}

					}
,
					"text" : "Disabled",
					"texton" : "Enabled",
					"varname" : "live.text[2]"
				}

			}
, 			{
				"box" : 				{
					"id" : "obj-73",
					"maxclass" : "newobj",
					"numinlets" : 2,
					"numoutlets" : 1,
					"outlettype" : [ "int" ],
					"patching_rect" : [ 70.099994003772736, 186.509205043315887, 29.5, 22.0 ],
					"text" : "+ 1"
				}

			}
, 			{
				"box" : 				{
					"id" : "obj-71",
					"maxclass" : "newobj",
					"numinlets" : 2,
					"numoutlets" : 2,
					"outlettype" : [ "", "" ],
					"patching_rect" : [ 127.813804986476896, 247.773967192173018, 39.0, 22.0 ],
					"text" : "zl.join"
				}

			}
, 			{
				"box" : 				{
					"id" : "obj-67",
					"maxclass" : "message",
					"numinlets" : 2,
					"numoutlets" : 1,
					"outlettype" : [ "" ],
					"patching_rect" : [ 694.399999999999977, 614.271108329296112, 111.0, 22.0 ],
					"text" : "vibrate $1 $2 $3 $4"
				}

			}
, 			{
				"box" : 				{
					"id" : "obj-64",
					"maxclass" : "newobj",
					"numinlets" : 3,
					"numoutlets" : 1,
					"outlettype" : [ "" ],
					"patching_rect" : [ 70.099994003772736, 247.773967192173018, 42.0, 22.0 ],
					"text" : "switch"
				}

			}
, 			{
				"box" : 				{
					"id" : "obj-52",
					"maxclass" : "live.text",
					"numinlets" : 1,
					"numoutlets" : 2,
					"outlettype" : [ "", "" ],
					"parameter_enable" : 1,
					"patching_rect" : [ 184.5, 75.509205043315887, 44.0, 15.0 ],
					"presentation" : 1,
					"presentation_rect" : [ 113.113207459449768, 73.113207459449768, 44.0, 15.0 ],
					"saved_attribute_attributes" : 					{
						"valueof" : 						{
							"parameter_enum" : [ "val1", "val2" ],
							"parameter_longname" : "live.text[1]",
							"parameter_mmax" : 1,
							"parameter_shortname" : "live.text[1]",
							"parameter_type" : 2
						}

					}
,
					"text" : "Single",
					"texton" : "All",
					"varname" : "live.text[1]"
				}

			}
, 			{
				"box" : 				{
					"id" : "obj-45",
					"maxclass" : "live.text",
					"numinlets" : 1,
					"numoutlets" : 2,
					"outlettype" : [ "", "" ],
					"parameter_enable" : 1,
					"patching_rect" : [ 859.5, 198.509205043315887, 44.0, 15.0 ],
					"presentation" : 1,
					"presentation_rect" : [ 178.556603729724884, 13.71698135137558, 44.0, 15.0 ],
					"saved_attribute_attributes" : 					{
						"valueof" : 						{
							"parameter_enum" : [ "val1", "val2" ],
							"parameter_initial" : [ 1.0 ],
							"parameter_initial_enable" : 1,
							"parameter_longname" : "Link Vibration Amounts",
							"parameter_mmax" : 1,
							"parameter_shortname" : "Link",
							"parameter_type" : 2
						}

					}
,
					"text" : "Unlinked",
					"texton" : "Linked",
					"varname" : "live.text"
				}

			}
, 			{
				"box" : 				{
					"id" : "obj-41",
					"maxclass" : "live.dial",
					"numinlets" : 1,
					"numoutlets" : 2,
					"outlettype" : [ "", "float" ],
					"parameter_enable" : 1,
					"patching_rect" : [ 816.5, 198.509205043315887, 41.0, 48.0 ],
					"presentation" : 1,
					"presentation_rect" : [ 135.556603729724884, 13.71698135137558, 41.0, 48.0 ],
					"saved_attribute_attributes" : 					{
						"valueof" : 						{
							"parameter_initial" : [ 0.0 ],
							"parameter_initial_enable" : 1,
							"parameter_longname" : "Vibration Amount 4",
							"parameter_shortname" : "Vibe 4",
							"parameter_type" : 0,
							"parameter_unitstyle" : 5
						}

					}
,
					"varname" : "live.dial[3]"
				}

			}
, 			{
				"box" : 				{
					"id" : "obj-40",
					"maxclass" : "live.dial",
					"numinlets" : 1,
					"numoutlets" : 2,
					"outlettype" : [ "", "float" ],
					"parameter_enable" : 1,
					"patching_rect" : [ 773.5, 198.509205043315887, 41.0, 48.0 ],
					"presentation" : 1,
					"presentation_rect" : [ 92.556603729724884, 13.71698135137558, 41.0, 48.0 ],
					"saved_attribute_attributes" : 					{
						"valueof" : 						{
							"parameter_initial" : [ 0.0 ],
							"parameter_initial_enable" : 1,
							"parameter_longname" : "Vibration Amount 3",
							"parameter_shortname" : "Vibe 3",
							"parameter_type" : 0,
							"parameter_unitstyle" : 5
						}

					}
,
					"varname" : "live.dial[2]"
				}

			}
, 			{
				"box" : 				{
					"id" : "obj-39",
					"maxclass" : "live.dial",
					"numinlets" : 1,
					"numoutlets" : 2,
					"outlettype" : [ "", "float" ],
					"parameter_enable" : 1,
					"patching_rect" : [ 730.5, 198.509205043315887, 41.0, 48.0 ],
					"presentation" : 1,
					"presentation_rect" : [ 49.556603729724884, 13.71698135137558, 41.0, 48.0 ],
					"saved_attribute_attributes" : 					{
						"valueof" : 						{
							"parameter_initial" : [ 0.0 ],
							"parameter_initial_enable" : 1,
							"parameter_longname" : "Vibration Amount 2",
							"parameter_shortname" : "Vibe 2",
							"parameter_type" : 0,
							"parameter_unitstyle" : 5
						}

					}
,
					"varname" : "live.dial[1]"
				}

			}
, 			{
				"box" : 				{
					"id" : "obj-38",
					"maxclass" : "live.dial",
					"numinlets" : 1,
					"numoutlets" : 2,
					"outlettype" : [ "", "float" ],
					"parameter_enable" : 1,
					"patching_rect" : [ 687.5, 198.509205043315887, 41.0, 48.0 ],
					"presentation" : 1,
					"presentation_rect" : [ 6.556603729724884, 13.71698135137558, 41.0, 48.0 ],
					"saved_attribute_attributes" : 					{
						"valueof" : 						{
							"parameter_initial" : [ 0.0 ],
							"parameter_initial_enable" : 1,
							"parameter_longname" : "Vibration Amount 1",
							"parameter_shortname" : "Vibe 1",
							"parameter_type" : 0,
							"parameter_unitstyle" : 5
						}

					}
,
					"varname" : "live.dial"
				}

			}
, 			{
				"box" : 				{
					"id" : "obj-31",
					"items" : "<empty>",
					"maxclass" : "umenu",
					"numinlets" : 1,
					"numoutlets" : 3,
					"outlettype" : [ "int", "", "" ],
					"parameter_enable" : 0,
					"patching_rect" : [ 77.0, 75.509205043315887, 100.0, 22.0 ],
					"presentation" : 1,
					"presentation_rect" : [ 6.556603729724884, 73.113207459449768, 100.0, 22.0 ]
				}

			}
, 			{
				"box" : 				{
					"id" : "obj-25",
					"maxclass" : "newobj",
					"numinlets" : 2,
					"numoutlets" : 2,
					"outlettype" : [ "", "" ],
					"patching_rect" : [ 148.0, 429.509205043315887, 105.0, 22.0 ],
					"text" : "routepass devices"
				}

			}
, 			{
				"box" : 				{
					"id" : "obj-21",
					"maxclass" : "message",
					"numinlets" : 2,
					"numoutlets" : 1,
					"outlettype" : [ "" ],
					"patching_rect" : [ 95.0, 275.509205043315887, 64.0, 22.0 ],
					"text" : "script start"
				}

			}
, 			{
				"box" : 				{
					"id" : "obj-4",
					"maxclass" : "newobj",
					"numinlets" : 1,
					"numoutlets" : 2,
					"outlettype" : [ "", "" ],
					"patching_rect" : [ 217.499995648860931, 340.093620479106903, 152.0, 22.0 ],
					"saved_object_attributes" : 					{
						"autostart" : 0,
						"defer" : 0,
						"restart" : 0,
						"watch" : 0
					}
,
					"text" : "node.script buttplug-max.js"
				}

			}
, 			{
				"box" : 				{
					"id" : "obj-11",
					"maxclass" : "live.comment",
					"numinlets" : 1,
					"numoutlets" : 0,
					"patching_rect" : [ 998.0, 177.509205043315887, 19.0, 18.0 ],
					"text" : "L",
					"textjustification" : 0
				}

			}
, 			{
				"box" : 				{
					"id" : "obj-10",
					"maxclass" : "live.comment",
					"numinlets" : 1,
					"numoutlets" : 0,
					"patching_rect" : [ 998.0, 96.509205043315887, 19.0, 18.0 ],
					"text" : "L",
					"textjustification" : 0
				}

			}
, 			{
				"box" : 				{
					"id" : "obj-8",
					"maxclass" : "live.comment",
					"numinlets" : 1,
					"numoutlets" : 0,
					"patching_rect" : [ 1071.0, 97.509205043315887, 19.0, 18.0 ],
					"text" : "R",
					"textjustification" : 0
				}

			}
, 			{
				"box" : 				{
					"id" : "obj-7",
					"maxclass" : "live.comment",
					"numinlets" : 1,
					"numoutlets" : 0,
					"patching_rect" : [ 1070.0, 177.509205043315887, 19.0, 18.0 ],
					"text" : "R",
					"textjustification" : 0
				}

			}
, 			{
				"box" : 				{
					"id" : "obj-6",
					"maxclass" : "live.comment",
					"numinlets" : 1,
					"numoutlets" : 0,
					"patching_rect" : [ 1061.0, 138.509205043315887, 126.0, 18.0 ],
					"text" : "Build your Audio Effect here",
					"textjustification" : 0
				}

			}
, 			{
				"box" : 				{
					"id" : "obj-5",
					"maxclass" : "live.comment",
					"numinlets" : 1,
					"numoutlets" : 0,
					"patching_rect" : [ 1009.0, 198.509205043315887, 63.0, 18.0 ],
					"text" : "Audio to Live",
					"textjustification" : 0
				}

			}
, 			{
				"box" : 				{
					"id" : "obj-3",
					"maxclass" : "live.comment",
					"numinlets" : 1,
					"numoutlets" : 0,
					"patching_rect" : [ 1004.0, 78.509205043315887, 74.0, 18.0 ],
					"text" : "Audio from Live",
					"textjustification" : 0
				}

			}
, 			{
				"box" : 				{
					"fontname" : "Arial Bold",
					"fontsize" : 10.0,
					"id" : "obj-2",
					"maxclass" : "newobj",
					"numinlets" : 2,
					"numoutlets" : 2,
					"outlettype" : [ "signal", "signal" ],
					"patching_rect" : [ 1014.0, 176.509205043315887, 53.0, 20.0 ],
					"text" : "plugout~"
				}

			}
, 			{
				"box" : 				{
					"fontname" : "Arial Bold",
					"fontsize" : 10.0,
					"id" : "obj-1",
					"maxclass" : "newobj",
					"numinlets" : 2,
					"numoutlets" : 2,
					"outlettype" : [ "signal", "signal" ],
					"patching_rect" : [ 1014.0, 96.509205043315887, 53.0, 20.0 ],
					"text" : "plugin~"
				}

			}
 ],
		"lines" : [ 			{
				"patchline" : 				{
					"destination" : [ "obj-2", 1 ],
					"midpoints" : [ 1057.5, 117.0, 1057.5, 117.0 ],
					"source" : [ "obj-1", 1 ]
				}

			}
, 			{
				"patchline" : 				{
					"destination" : [ "obj-2", 0 ],
					"midpoints" : [ 1023.5, 117.0, 1023.5, 117.0 ],
					"source" : [ "obj-1", 0 ]
				}

			}
, 			{
				"patchline" : 				{
					"destination" : [ "obj-147", 3 ],
					"midpoints" : [ 815.899999999999977, 510.0, 795.899999999999977, 510.0 ],
					"source" : [ "obj-100", 0 ]
				}

			}
, 			{
				"patchline" : 				{
					"destination" : [ "obj-64", 0 ],
					"midpoints" : [ 79.599994003772736, 243.0, 79.599994003772736, 243.0 ],
					"source" : [ "obj-103", 0 ]
				}

			}
, 			{
				"patchline" : 				{
					"destination" : [ "obj-94", 0 ],
					"midpoints" : [ 869.0, 258.0, 480.0, 258.0, 480.0, 189.0, 503.099998784065292, 189.0 ],
					"source" : [ "obj-104", 0 ]
				}

			}
, 			{
				"patchline" : 				{
					"destination" : [ "obj-111", 0 ],
					"midpoints" : [ 137.313804986476896, 228.0, 180.0, 228.0, 180.0, 180.0, 202.75, 180.0 ],
					"source" : [ "obj-110", 0 ]
				}

			}
, 			{
				"patchline" : 				{
					"destination" : [ "obj-73", 0 ],
					"midpoints" : [ 202.75, 210.0, 174.0, 210.0, 174.0, 192.0, 99.0, 192.0, 99.0, 183.0, 79.599994003772736, 183.0 ],
					"source" : [ "obj-111", 0 ]
				}

			}
, 			{
				"patchline" : 				{
					"destination" : [ "obj-121", 0 ],
					"midpoints" : [ 399.829999999999984, 804.0, 189.0, 804.0, 189.0, 594.0, 127.0, 594.0 ],
					"order" : 1,
					"source" : [ "obj-113", 1 ]
				}

			}
, 			{
				"patchline" : 				{
					"destination" : [ "obj-14", 0 ],
					"midpoints" : [ 353.829999999999984, 804.0, 330.0, 804.0, 330.0, 741.0, 381.0, 741.0, 381.0, 336.0, 390.0, 336.0, 390.0, 288.0, 287.833370923995972, 288.0 ],
					"order" : 3,
					"source" : [ "obj-113", 0 ]
				}

			}
, 			{
				"patchline" : 				{
					"destination" : [ "obj-17", 0 ],
					"midpoints" : [ 399.829999999999984, 804.0, 330.0, 804.0, 330.0, 741.0, 381.0, 741.0, 381.0, 336.0, 390.0, 336.0, 390.0, 288.0, 339.833370923995972, 288.0 ],
					"order" : 0,
					"source" : [ "obj-113", 1 ]
				}

			}
, 			{
				"patchline" : 				{
					"destination" : [ "obj-30", 0 ],
					"midpoints" : [ 353.829999999999984, 804.0, 0.0, 804.0, 0.0, 210.0, 22.75, 210.0 ],
					"order" : 4,
					"source" : [ "obj-113", 0 ]
				}

			}
, 			{
				"patchline" : 				{
					"destination" : [ "obj-48", 0 ],
					"midpoints" : [ 353.829999999999984, 804.0, 330.0, 804.0, 330.0, 741.0, 381.0, 741.0, 381.0, 336.0, 390.0, 336.0, 390.0, 75.0, 302.833370923995972, 75.0 ],
					"order" : 2,
					"source" : [ "obj-113", 0 ]
				}

			}
, 			{
				"patchline" : 				{
					"destination" : [ "obj-75", 0 ],
					"midpoints" : [ 353.829999999999984, 819.0, 349.500043570995331, 819.0 ],
					"order" : 1,
					"source" : [ "obj-113", 0 ]
				}

			}
, 			{
				"patchline" : 				{
					"destination" : [ "obj-77", 0 ],
					"midpoints" : [ 353.829999999999984, 816.0, 412.500043570995331, 816.0 ],
					"order" : 0,
					"source" : [ "obj-113", 0 ]
				}

			}
, 			{
				"patchline" : 				{
					"destination" : [ "obj-67", 0 ],
					"midpoints" : [ 778.503175759315468, 603.0, 720.0, 603.0, 720.0, 609.0, 703.899999999999977, 609.0 ],
					"source" : [ "obj-12", 0 ]
				}

			}
, 			{
				"patchline" : 				{
					"destination" : [ "obj-28", 0 ],
					"midpoints" : [ 127.0, 624.0, 127.47773897886276, 624.0 ],
					"order" : 1,
					"source" : [ "obj-121", 0 ]
				}

			}
, 			{
				"patchline" : 				{
					"destination" : [ "obj-34", 0 ],
					"midpoints" : [ 127.0, 630.0, 203.47773897886276, 630.0 ],
					"order" : 0,
					"source" : [ "obj-121", 0 ]
				}

			}
, 			{
				"patchline" : 				{
					"destination" : [ "obj-196", 0 ],
					"midpoints" : [ 226.999995648860931, 261.0, 177.0, 261.0, 177.0, 414.0, 135.0, 414.0, 135.0, 468.0, 193.106552124023438, 468.0 ],
					"order" : 2,
					"source" : [ "obj-13", 0 ]
				}

			}
, 			{
				"patchline" : 				{
					"destination" : [ "obj-21", 0 ],
					"midpoints" : [ 257.999995648860931, 261.0, 177.0, 261.0, 177.0, 270.0, 104.5, 270.0 ],
					"source" : [ "obj-13", 1 ]
				}

			}
, 			{
				"patchline" : 				{
					"destination" : [ "obj-30", 0 ],
					"midpoints" : [ 226.999995648860931, 234.0, 174.0, 234.0, 174.0, 192.0, 111.0, 192.0, 111.0, 210.0, 22.75, 210.0 ],
					"order" : 3,
					"source" : [ "obj-13", 0 ]
				}

			}
, 			{
				"patchline" : 				{
					"destination" : [ "obj-81", 0 ],
					"midpoints" : [ 226.999995648860931, 261.0, 233.500003337860107, 261.0 ],
					"order" : 1,
					"source" : [ "obj-13", 0 ]
				}

			}
, 			{
				"patchline" : 				{
					"destination" : [ "obj-9", 0 ],
					"midpoints" : [ 226.999995648860931, 243.0, 306.0, 243.0, 306.0, 177.0, 320.899998962879181, 177.0 ],
					"order" : 0,
					"source" : [ "obj-13", 0 ]
				}

			}
, 			{
				"patchline" : 				{
					"destination" : [ "obj-38", 0 ],
					"midpoints" : [ 287.833370923995972, 327.0, 273.0, 327.0, 273.0, 243.0, 672.0, 243.0, 672.0, 192.0, 697.0, 192.0 ],
					"order" : 1,
					"source" : [ "obj-14", 0 ]
				}

			}
, 			{
				"patchline" : 				{
					"destination" : [ "obj-45", 0 ],
					"midpoints" : [ 287.833370923995972, 327.0, 273.0, 327.0, 273.0, 243.0, 672.0, 243.0, 672.0, 156.0, 869.0, 156.0 ],
					"order" : 0,
					"source" : [ "obj-14", 0 ]
				}

			}
, 			{
				"patchline" : 				{
					"destination" : [ "obj-48", 0 ],
					"midpoints" : [ 287.833370923995972, 327.0, 273.0, 327.0, 273.0, 243.0, 300.0, 243.0, 300.0, 123.0, 279.0, 123.0, 279.0, 84.0, 302.833370923995972, 84.0 ],
					"order" : 2,
					"source" : [ "obj-14", 0 ]
				}

			}
, 			{
				"patchline" : 				{
					"destination" : [ "obj-52", 0 ],
					"midpoints" : [ 287.833370923995972, 327.0, 180.0, 327.0, 180.0, 72.0, 194.0, 72.0 ],
					"order" : 3,
					"source" : [ "obj-14", 0 ]
				}

			}
, 			{
				"patchline" : 				{
					"destination" : [ "obj-12", 0 ],
					"midpoints" : [ 703.899999999999977, 573.0, 778.503175759315468, 573.0 ],
					"source" : [ "obj-147", 0 ]
				}

			}
, 			{
				"patchline" : 				{
					"destination" : [ "obj-4", 0 ],
					"midpoints" : [ 320.899998962879181, 288.0, 264.0, 288.0, 264.0, 327.0, 226.999995648860931, 327.0 ],
					"source" : [ "obj-15", 0 ]
				}

			}
, 			{
				"patchline" : 				{
					"destination" : [ "obj-38", 0 ],
					"midpoints" : [ 339.833370923995972, 327.0, 432.0, 327.0, 432.0, 228.0, 672.0, 228.0, 672.0, 192.0, 697.0, 192.0 ],
					"order" : 4,
					"source" : [ "obj-17", 0 ]
				}

			}
, 			{
				"patchline" : 				{
					"destination" : [ "obj-39", 0 ],
					"midpoints" : [ 339.833370923995972, 327.0, 432.0, 327.0, 432.0, 228.0, 672.0, 228.0, 672.0, 192.0, 740.0, 192.0 ],
					"order" : 3,
					"source" : [ "obj-17", 0 ]
				}

			}
, 			{
				"patchline" : 				{
					"destination" : [ "obj-40", 0 ],
					"midpoints" : [ 339.833370923995972, 327.0, 432.0, 327.0, 432.0, 228.0, 672.0, 228.0, 672.0, 192.0, 783.0, 192.0 ],
					"order" : 2,
					"source" : [ "obj-17", 0 ]
				}

			}
, 			{
				"patchline" : 				{
					"destination" : [ "obj-41", 0 ],
					"midpoints" : [ 339.833370923995972, 327.0, 432.0, 327.0, 432.0, 228.0, 672.0, 228.0, 672.0, 192.0, 826.0, 192.0 ],
					"order" : 1,
					"source" : [ "obj-17", 0 ]
				}

			}
, 			{
				"patchline" : 				{
					"destination" : [ "obj-45", 0 ],
					"midpoints" : [ 339.833370923995972, 327.0, 432.0, 327.0, 432.0, 228.0, 672.0, 228.0, 672.0, 156.0, 869.0, 156.0 ],
					"order" : 0,
					"source" : [ "obj-17", 0 ]
				}

			}
, 			{
				"patchline" : 				{
					"destination" : [ "obj-52", 0 ],
					"midpoints" : [ 339.833370923995972, 327.0, 180.0, 327.0, 180.0, 72.0, 194.0, 72.0 ],
					"order" : 5,
					"source" : [ "obj-17", 0 ]
				}

			}
, 			{
				"patchline" : 				{
					"destination" : [ "obj-31", 0 ],
					"midpoints" : [ 193.106552124023438, 507.0, 180.0, 507.0, 180.0, 462.0, 135.0, 462.0, 135.0, 309.0, 177.0, 309.0, 177.0, 108.0, 63.0, 108.0, 63.0, 69.0, 86.5, 69.0 ],
					"source" : [ "obj-196", 0 ]
				}

			}
, 			{
				"patchline" : 				{
					"destination" : [ "obj-113", 0 ],
					"midpoints" : [ 298.5, 753.0, 353.829999999999984, 753.0 ],
					"source" : [ "obj-20", 1 ]
				}

			}
, 			{
				"patchline" : 				{
					"destination" : [ "obj-17", 0 ],
					"midpoints" : [ 246.5, 741.0, 381.0, 741.0, 381.0, 336.0, 390.0, 336.0, 390.0, 288.0, 339.833370923995972, 288.0 ],
					"order" : 0,
					"source" : [ "obj-20", 0 ]
				}

			}
, 			{
				"patchline" : 				{
					"destination" : [ "obj-32", 0 ],
					"midpoints" : [ 246.5, 753.0, 215.455884935855863, 753.0 ],
					"order" : 1,
					"source" : [ "obj-20", 0 ]
				}

			}
, 			{
				"patchline" : 				{
					"destination" : [ "obj-31", 0 ],
					"midpoints" : [ 40.0, 507.0, 0.0, 507.0, 0.0, 69.0, 86.5, 69.0 ],
					"source" : [ "obj-207", 0 ]
				}

			}
, 			{
				"patchline" : 				{
					"destination" : [ "obj-4", 0 ],
					"midpoints" : [ 104.5, 327.0, 226.999995648860931, 327.0 ],
					"source" : [ "obj-21", 0 ]
				}

			}
, 			{
				"patchline" : 				{
					"destination" : [ "obj-196", 0 ],
					"midpoints" : [ 157.5, 468.0, 193.106552124023438, 468.0 ],
					"order" : 0,
					"source" : [ "obj-25", 0 ]
				}

			}
, 			{
				"patchline" : 				{
					"destination" : [ "obj-207", 0 ],
					"midpoints" : [ 157.5, 468.0, 40.0, 468.0 ],
					"order" : 1,
					"source" : [ "obj-25", 0 ]
				}

			}
, 			{
				"patchline" : 				{
					"destination" : [ "obj-36", 0 ],
					"midpoints" : [ 243.5, 453.0, 243.5, 453.0 ],
					"source" : [ "obj-25", 1 ]
				}

			}
, 			{
				"patchline" : 				{
					"destination" : [ "obj-26", 0 ],
					"midpoints" : [ 127.47773897886276, 660.0, 0.0, 660.0, 0.0, 159.0, 17.0, 159.0 ],
					"source" : [ "obj-28", 0 ]
				}

			}
, 			{
				"patchline" : 				{
					"destination" : [ "obj-26", 0 ],
					"midpoints" : [ 22.75, 240.0, 0.0, 240.0, 0.0, 159.0, 17.0, 159.0 ],
					"source" : [ "obj-30", 0 ]
				}

			}
, 			{
				"patchline" : 				{
					"destination" : [ "obj-71", 1 ],
					"midpoints" : [ 127.0, 150.0, 174.0, 150.0, 174.0, 240.0, 157.313804986476896, 240.0 ],
					"source" : [ "obj-31", 1 ]
				}

			}
, 			{
				"patchline" : 				{
					"destination" : [ "obj-121", 0 ],
					"midpoints" : [ 215.455884935855863, 792.0, 189.0, 792.0, 189.0, 594.0, 127.0, 594.0 ],
					"source" : [ "obj-32", 0 ]
				}

			}
, 			{
				"patchline" : 				{
					"destination" : [ "obj-75", 0 ],
					"midpoints" : [ 261.455884935855863, 819.0, 349.500043570995331, 819.0 ],
					"order" : 1,
					"source" : [ "obj-32", 1 ]
				}

			}
, 			{
				"patchline" : 				{
					"destination" : [ "obj-77", 0 ],
					"midpoints" : [ 261.455884935855863, 819.0, 412.500043570995331, 819.0 ],
					"order" : 0,
					"source" : [ "obj-32", 1 ]
				}

			}
, 			{
				"patchline" : 				{
					"destination" : [ "obj-79", 0 ],
					"midpoints" : [ 203.47773897886276, 669.0, 660.0, 669.0, 660.0, 39.0, 703.783329916000412, 39.0 ],
					"source" : [ "obj-34", 0 ]
				}

			}
, 			{
				"patchline" : 				{
					"destination" : [ "obj-35", 0 ],
					"midpoints" : [ 243.5, 507.0, 243.5, 507.0 ],
					"source" : [ "obj-36", 0 ]
				}

			}
, 			{
				"patchline" : 				{
					"destination" : [ "obj-100", 2 ],
					"midpoints" : [ 719.0, 462.0, 837.899999999999977, 462.0 ],
					"order" : 0,
					"source" : [ "obj-38", 1 ]
				}

			}
, 			{
				"patchline" : 				{
					"destination" : [ "obj-147", 0 ],
					"midpoints" : [ 719.0, 462.0, 681.0, 462.0, 681.0, 513.0, 703.899999999999977, 513.0 ],
					"order" : 3,
					"source" : [ "obj-38", 1 ]
				}

			}
, 			{
				"patchline" : 				{
					"destination" : [ "obj-44", 0 ],
					"midpoints" : [ 719.0, 462.0, 703.899999999999977, 462.0 ],
					"order" : 4,
					"source" : [ "obj-38", 1 ]
				}

			}
, 			{
				"patchline" : 				{
					"destination" : [ "obj-80", 1 ],
					"midpoints" : [ 719.0, 258.0, 570.0, 258.0, 570.0, 144.0, 523.099998784065292, 144.0 ],
					"order" : 5,
					"source" : [ "obj-38", 1 ]
				}

			}
, 			{
				"patchline" : 				{
					"destination" : [ "obj-98", 2 ],
					"midpoints" : [ 719.0, 462.0, 751.899999999999977, 462.0 ],
					"order" : 2,
					"source" : [ "obj-38", 1 ]
				}

			}
, 			{
				"patchline" : 				{
					"destination" : [ "obj-99", 2 ],
					"midpoints" : [ 719.0, 462.0, 794.899999999999977, 462.0 ],
					"order" : 1,
					"source" : [ "obj-38", 1 ]
				}

			}
, 			{
				"patchline" : 				{
					"destination" : [ "obj-44", 0 ],
					"midpoints" : [ 762.0, 462.0, 703.899999999999977, 462.0 ],
					"order" : 1,
					"source" : [ "obj-39", 1 ]
				}

			}
, 			{
				"patchline" : 				{
					"destination" : [ "obj-98", 1 ],
					"midpoints" : [ 762.0, 462.0, 740.899999999999977, 462.0 ],
					"order" : 0,
					"source" : [ "obj-39", 1 ]
				}

			}
, 			{
				"patchline" : 				{
					"destination" : [ "obj-20", 0 ],
					"midpoints" : [ 359.999995648860931, 696.0, 246.5, 696.0 ],
					"source" : [ "obj-4", 1 ]
				}

			}
, 			{
				"patchline" : 				{
					"destination" : [ "obj-25", 0 ],
					"midpoints" : [ 226.999995648860931, 414.0, 157.5, 414.0 ],
					"source" : [ "obj-4", 0 ]
				}

			}
, 			{
				"patchline" : 				{
					"destination" : [ "obj-44", 0 ],
					"midpoints" : [ 805.0, 462.0, 703.899999999999977, 462.0 ],
					"order" : 1,
					"source" : [ "obj-40", 1 ]
				}

			}
, 			{
				"patchline" : 				{
					"destination" : [ "obj-99", 1 ],
					"midpoints" : [ 805.0, 462.0, 783.899999999999977, 462.0 ],
					"order" : 0,
					"source" : [ "obj-40", 1 ]
				}

			}
, 			{
				"patchline" : 				{
					"destination" : [ "obj-100", 1 ],
					"midpoints" : [ 848.0, 462.0, 826.899999999999977, 462.0 ],
					"order" : 0,
					"source" : [ "obj-41", 1 ]
				}

			}
, 			{
				"patchline" : 				{
					"destination" : [ "obj-44", 0 ],
					"midpoints" : [ 848.0, 462.0, 703.899999999999977, 462.0 ],
					"order" : 1,
					"source" : [ "obj-41", 1 ]
				}

			}
, 			{
				"patchline" : 				{
					"destination" : [ "obj-147", 0 ],
					"midpoints" : [ 703.899999999999977, 513.0, 703.899999999999977, 513.0 ],
					"source" : [ "obj-44", 0 ]
				}

			}
, 			{
				"patchline" : 				{
					"destination" : [ "obj-100", 0 ],
					"midpoints" : [ 869.0, 216.0, 915.0, 216.0, 915.0, 462.0, 815.899999999999977, 462.0 ],
					"order" : 1,
					"source" : [ "obj-45", 0 ]
				}

			}
, 			{
				"patchline" : 				{
					"destination" : [ "obj-104", 0 ],
					"midpoints" : [ 869.0, 216.0, 869.0, 216.0 ],
					"order" : 0,
					"source" : [ "obj-45", 0 ]
				}

			}
, 			{
				"patchline" : 				{
					"destination" : [ "obj-48", 1 ],
					"midpoints" : [ 869.0, 216.0, 903.0, 216.0, 903.0, 84.0, 318.833370923995972, 84.0 ],
					"order" : 4,
					"source" : [ "obj-45", 0 ]
				}

			}
, 			{
				"patchline" : 				{
					"destination" : [ "obj-48", 0 ],
					"midpoints" : [ 869.0, 216.0, 903.0, 216.0, 903.0, 75.0, 302.833370923995972, 75.0 ],
					"order" : 5,
					"source" : [ "obj-45", 0 ]
				}

			}
, 			{
				"patchline" : 				{
					"destination" : [ "obj-98", 0 ],
					"midpoints" : [ 869.0, 216.0, 915.0, 216.0, 915.0, 462.0, 729.899999999999977, 462.0 ],
					"order" : 3,
					"source" : [ "obj-45", 0 ]
				}

			}
, 			{
				"patchline" : 				{
					"destination" : [ "obj-99", 0 ],
					"midpoints" : [ 869.0, 216.0, 915.0, 216.0, 915.0, 462.0, 772.899999999999977, 462.0 ],
					"order" : 2,
					"source" : [ "obj-45", 0 ]
				}

			}
, 			{
				"patchline" : 				{
					"destination" : [ "obj-39", 0 ],
					"midpoints" : [ 457.120000000000005, 363.0, 672.0, 363.0, 672.0, 192.0, 740.0, 192.0 ],
					"order" : 2,
					"source" : [ "obj-46", 0 ]
				}

			}
, 			{
				"patchline" : 				{
					"destination" : [ "obj-40", 0 ],
					"midpoints" : [ 457.120000000000005, 363.0, 672.0, 363.0, 672.0, 192.0, 783.0, 192.0 ],
					"order" : 1,
					"source" : [ "obj-46", 0 ]
				}

			}
, 			{
				"patchline" : 				{
					"destination" : [ "obj-41", 0 ],
					"midpoints" : [ 457.120000000000005, 363.0, 672.0, 363.0, 672.0, 192.0, 826.0, 192.0 ],
					"order" : 0,
					"source" : [ "obj-46", 0 ]
				}

			}
, 			{
				"patchline" : 				{
					"destination" : [ "obj-12", 1 ],
					"midpoints" : [ 684.603175759315491, 621.0, 684.174603223800659, 621.0, 684.174603223800659, 648.0, 837.0, 648.0, 837.0, 573.0, 816.503175759315468, 573.0 ],
					"source" : [ "obj-47", 0 ]
				}

			}
, 			{
				"patchline" : 				{
					"destination" : [ "obj-80", 0 ],
					"midpoints" : [ 302.833370923995972, 135.0, 503.099998784065292, 135.0 ],
					"order" : 0,
					"source" : [ "obj-48", 0 ]
				}

			}
, 			{
				"patchline" : 				{
					"destination" : [ "obj-88", 0 ],
					"midpoints" : [ 302.833370923995972, 165.0, 404.699999999999989, 165.0 ],
					"order" : 1,
					"source" : [ "obj-48", 0 ]
				}

			}
, 			{
				"patchline" : 				{
					"destination" : [ "obj-73", 0 ],
					"midpoints" : [ 194.0, 171.0, 168.0, 171.0, 168.0, 192.0, 99.0, 192.0, 99.0, 183.0, 79.599994003772736, 183.0 ],
					"source" : [ "obj-52", 0 ]
				}

			}
, 			{
				"patchline" : 				{
					"destination" : [ "obj-17", 0 ],
					"midpoints" : [ 16.0, 150.0, 180.0, 150.0, 180.0, 261.0, 339.833370923995972, 261.0 ],
					"order" : 2,
					"source" : [ "obj-58", 0 ]
				}

			}
, 			{
				"patchline" : 				{
					"destination" : [ "obj-75", 0 ],
					"midpoints" : [ 16.0, 150.0, 0.0, 150.0, 0.0, 819.0, 349.500043570995331, 819.0 ],
					"order" : 1,
					"source" : [ "obj-58", 0 ]
				}

			}
, 			{
				"patchline" : 				{
					"destination" : [ "obj-77", 0 ],
					"midpoints" : [ 16.0, 150.0, 0.0, 150.0, 0.0, 819.0, 412.500043570995331, 819.0 ],
					"order" : 0,
					"source" : [ "obj-58", 0 ]
				}

			}
, 			{
				"patchline" : 				{
					"destination" : [ "obj-4", 0 ],
					"midpoints" : [ 79.599994003772736, 327.0, 226.999995648860931, 327.0 ],
					"source" : [ "obj-64", 0 ]
				}

			}
, 			{
				"patchline" : 				{
					"destination" : [ "obj-64", 2 ],
					"midpoints" : [ 703.899999999999977, 639.0, 603.0, 639.0, 603.0, 243.0, 102.599994003772736, 243.0 ],
					"order" : 1,
					"source" : [ "obj-67", 0 ]
				}

			}
, 			{
				"patchline" : 				{
					"destination" : [ "obj-71", 0 ],
					"midpoints" : [ 703.899999999999977, 639.0, 603.0, 639.0, 603.0, 243.0, 137.313804986476896, 243.0 ],
					"order" : 0,
					"source" : [ "obj-67", 0 ]
				}

			}
, 			{
				"patchline" : 				{
					"destination" : [ "obj-64", 1 ],
					"midpoints" : [ 137.313804986476896, 270.0, 114.0, 270.0, 114.0, 243.0, 91.099994003772736, 243.0 ],
					"source" : [ "obj-71", 0 ]
				}

			}
, 			{
				"patchline" : 				{
					"destination" : [ "obj-103", 0 ],
					"midpoints" : [ 79.599994003772736, 210.0, 79.599994003772736, 210.0 ],
					"source" : [ "obj-73", 0 ]
				}

			}
, 			{
				"patchline" : 				{
					"destination" : [ "obj-38", 0 ],
					"midpoints" : [ 349.500043570995331, 858.0, 660.0, 858.0, 660.0, 192.0, 697.0, 192.0 ],
					"order" : 3,
					"source" : [ "obj-75", 0 ]
				}

			}
, 			{
				"patchline" : 				{
					"destination" : [ "obj-39", 0 ],
					"midpoints" : [ 349.500043570995331, 858.0, 660.0, 858.0, 660.0, 192.0, 740.0, 192.0 ],
					"order" : 2,
					"source" : [ "obj-75", 0 ]
				}

			}
, 			{
				"patchline" : 				{
					"destination" : [ "obj-40", 0 ],
					"midpoints" : [ 349.500043570995331, 858.0, 660.0, 858.0, 660.0, 192.0, 783.0, 192.0 ],
					"order" : 1,
					"source" : [ "obj-75", 0 ]
				}

			}
, 			{
				"patchline" : 				{
					"destination" : [ "obj-41", 0 ],
					"midpoints" : [ 349.500043570995331, 858.0, 660.0, 858.0, 660.0, 192.0, 826.0, 192.0 ],
					"order" : 0,
					"source" : [ "obj-75", 0 ]
				}

			}
, 			{
				"patchline" : 				{
					"destination" : [ "obj-103", 1 ],
					"midpoints" : [ 703.783329916000412, 135.0, 168.0, 135.0, 168.0, 192.0, 111.0, 192.0, 111.0, 216.0, 90.099994003772736, 216.0 ],
					"order" : 3,
					"source" : [ "obj-79", 0 ]
				}

			}
, 			{
				"patchline" : 				{
					"destination" : [ "obj-110", 0 ],
					"midpoints" : [ 703.783329916000412, 135.0, 168.0, 135.0, 168.0, 192.0, 137.313804986476896, 192.0 ],
					"order" : 2,
					"source" : [ "obj-79", 0 ]
				}

			}
, 			{
				"patchline" : 				{
					"destination" : [ "obj-13", 0 ],
					"midpoints" : [ 703.783329916000412, 135.0, 240.0, 135.0, 240.0, 204.0, 226.999995648860931, 204.0 ],
					"order" : 1,
					"source" : [ "obj-79", 0 ]
				}

			}
, 			{
				"patchline" : 				{
					"destination" : [ "obj-46", 0 ],
					"midpoints" : [ 703.783329916000412, 135.0, 457.120000000000005, 135.0 ],
					"order" : 0,
					"source" : [ "obj-79", 0 ]
				}

			}
, 			{
				"patchline" : 				{
					"destination" : [ "obj-94", 0 ],
					"midpoints" : [ 523.099998784065292, 183.0, 504.0, 183.0, 504.0, 189.0, 503.099998784065292, 189.0 ],
					"source" : [ "obj-80", 1 ]
				}

			}
, 			{
				"patchline" : 				{
					"destination" : [ "obj-4", 0 ],
					"midpoints" : [ 233.500003337860107, 327.0, 226.999995648860931, 327.0 ],
					"source" : [ "obj-81", 0 ]
				}

			}
, 			{
				"patchline" : 				{
					"destination" : [ "obj-46", 2 ],
					"midpoints" : [ 404.699999999999989, 411.0, 381.0, 411.0, 381.0, 336.0, 432.0, 336.0, 432.0, 306.0, 479.120000000000005, 306.0 ],
					"source" : [ "obj-88", 0 ]
				}

			}
, 			{
				"patchline" : 				{
					"destination" : [ "obj-15", 0 ],
					"midpoints" : [ 320.899998962879181, 204.0, 320.899998962879181, 204.0 ],
					"source" : [ "obj-9", 0 ]
				}

			}
, 			{
				"patchline" : 				{
					"destination" : [ "obj-39", 0 ],
					"midpoints" : [ 503.099998784065292, 228.0, 672.0, 228.0, 672.0, 192.0, 740.0, 192.0 ],
					"order" : 2,
					"source" : [ "obj-94", 0 ]
				}

			}
, 			{
				"patchline" : 				{
					"destination" : [ "obj-40", 0 ],
					"midpoints" : [ 503.099998784065292, 228.0, 672.0, 228.0, 672.0, 192.0, 783.0, 192.0 ],
					"order" : 1,
					"source" : [ "obj-94", 0 ]
				}

			}
, 			{
				"patchline" : 				{
					"destination" : [ "obj-41", 0 ],
					"midpoints" : [ 503.099998784065292, 228.0, 672.0, 228.0, 672.0, 192.0, 826.0, 192.0 ],
					"order" : 0,
					"source" : [ "obj-94", 0 ]
				}

			}
, 			{
				"patchline" : 				{
					"destination" : [ "obj-147", 1 ],
					"midpoints" : [ 729.899999999999977, 513.0, 734.566666666666606, 513.0 ],
					"source" : [ "obj-98", 0 ]
				}

			}
, 			{
				"patchline" : 				{
					"destination" : [ "obj-147", 2 ],
					"midpoints" : [ 772.899999999999977, 510.0, 765.233333333333348, 510.0 ],
					"source" : [ "obj-99", 0 ]
				}

			}
 ],
		"parameters" : 		{
			"obj-38" : [ "Vibration Amount 1", "Vibe 1", 0 ],
			"obj-39" : [ "Vibration Amount 2", "Vibe 2", 0 ],
			"obj-40" : [ "Vibration Amount 3", "Vibe 3", 0 ],
			"obj-41" : [ "Vibration Amount 4", "Vibe 4", 0 ],
			"obj-45" : [ "Link Vibration Amounts", "Link", 0 ],
			"obj-47" : [ "live.numbox", "live.numbox", 0 ],
			"obj-52" : [ "live.text[1]", "live.text[1]", 0 ],
			"obj-79" : [ "live.text[2]", "live.text[2]", 0 ],
			"parameterbanks" : 			{
				"0" : 				{
					"index" : 0,
					"name" : "",
					"parameters" : [ "-", "-", "-", "-", "-", "-", "-", "-" ]
				}

			}
,
			"inherited_shortname" : 1
		}
,
		"dependency_cache" : [ 			{
				"name" : "Buttplug.maxsnap",
				"bootpath" : "~/Documents/Max 8/Projects/Buttplug/data",
				"patcherrelativepath" : "../data",
				"type" : "mx@s",
				"implicit" : 1
			}
, 			{
				"name" : "buttplug-max.js",
				"bootpath" : "~/Documents/Max 8/Projects/Buttplug/node_content",
				"patcherrelativepath" : "../node_content",
				"type" : "TEXT",
				"implicit" : 1
			}
 ],
		"autosave" : 0,
		"snapshot" : 		{
			"filetype" : "C74Snapshot",
			"version" : 2,
			"minorversion" : 0,
			"name" : "snapshotlist",
			"origin" : "jpatcher",
			"type" : "list",
			"subtype" : "Undefined",
			"embed" : 1,
			"snapshot" : 			{
				"valuedictionary" : 				{
					"parameter_values" : 					{
						"Link Vibration Amounts" : 1.0,
						"Vibration Amount 1" : 0.0,
						"Vibration Amount 2" : 0.0,
						"Vibration Amount 3" : 0.0,
						"Vibration Amount 4" : 0.0,
						"live.text[1]" : 0.0,
						"live.text[2]" : 0.0
					}

				}

			}
,
			"snapshotlist" : 			{
				"current_snapshot" : 0,
				"entries" : [ 					{
						"filetype" : "C74Snapshot",
						"version" : 2,
						"minorversion" : 0,
						"name" : "Default",
						"origin" : "Buttplug",
						"type" : "patcher",
						"subtype" : "Undefined",
						"embed" : 0,
						"fileref" : 						{
							"name" : "Buttplug",
							"filename" : "Buttplug.maxsnap",
							"filepath" : "~/Documents/Max 8/Projects/Buttplug/data",
							"filepos" : -1,
							"snapshotfileid" : "5f4085bf40a3578eb5f173d981bf2bac"
						}

					}
 ]
			}

		}

	}

}
